<?xml version="1.0" encoding="UTF-8" standalone="no"?>
<svg
   xmlns:dc="http://purl.org/dc/elements/1.1/"
   xmlns:cc="http://creativecommons.org/ns#"
   xmlns:rdf="http://www.w3.org/1999/02/22-rdf-syntax-ns#"
   xmlns:svg="http://www.w3.org/2000/svg"
   xmlns="http://www.w3.org/2000/svg"
   id="svg4"
   xml:space="preserve"
   viewBox="0 0 1024 768"
   y="0px"
   x="0px"
   version="1.1"><metadata
     id="metadata10"><rdf:RDF><cc:Work
         rdf:about=""><dc:format>image/svg+xml</dc:format><dc:type
           rdf:resource="http://purl.org/dc/dcmitype/StillImage" /></cc:Work></rdf:RDF></metadata><defs
     id="defs8" /><path
     id="path2"
     d="m271.75 308.94l-0.02 0.2c-0.02 0.11-0.47 4.77-1.01 10.35-0.54 5.59-1.32 13.57-1.73 17.73l-0.75 7.58-0.63 0.76c-0.35 0.42-0.87 1.06-1.14 1.41-0.28 0.36-0.7 0.91-0.94 1.23-0.25 0.32-0.65 0.88-0.9 1.23-0.25 0.36-0.64 0.91-0.86 1.23-0.22 0.33-0.63 0.95-0.91 1.4-0.29 0.45-0.76 1.2-1.04 1.67s-0.77 1.32-1.09 1.9c-0.32 0.57-0.94 1.74-1.36 2.6-0.43 0.86-0.97 1.98-1.19 2.48-0.23 0.5-0.58 1.31-0.78 1.8-0.21 0.5-0.56 1.37-0.78 1.95-0.21 0.58-0.58 1.6-0.81 2.28s-0.56 1.72-0.75 2.32c-0.18 0.6-0.44 1.51-0.58 2.02-0.13 0.51-0.32 1.25-0.42 1.64-0.09 0.39-0.24 1.04-0.33 1.44s-0.24 1.16-0.35 1.69c-0.1 0.53-0.26 1.41-0.36 1.96-0.09 0.55-0.22 1.41-0.29 1.9s-0.17 1.3-0.23 1.79c-0.05 0.49-0.14 1.34-0.19 1.88l-0.09 0.97-0.31 0.33c-0.17 0.19-0.45 0.53-0.63 0.76-0.19 0.23-0.48 0.64-0.67 0.92-0.18 0.27-0.47 0.75-0.65 1.06-0.17 0.3-0.41 0.73-0.52 0.96-0.11 0.22-0.31 0.64-0.44 0.94s-0.34 0.8-0.47 1.12c-0.12 0.32-0.31 0.83-0.41 1.13-0.11 0.3-0.29 0.89-0.41 1.31-0.13 0.43-0.3 1.08-0.4 1.44-0.09 0.37-0.22 0.94-0.29 1.28-0.07 0.33-0.18 0.91-0.25 1.28-0.07 0.38-0.19 1.08-0.25 1.55-0.07 0.47-0.17 1.28-0.23 1.79-0.06 0.52-0.13 1.32-0.17 1.78-0.03 0.45-0.08 1.19-0.1 1.62-0.03 0.44-0.06 1.49-0.07 2.34-0.02 0.91-0.01 2.11 0.02 2.94 0.03 0.77 0.07 1.71 0.09 2.08 0.02 0.38 0.07 1.07 0.1 1.53 0.04 0.45 0.11 1.3 0.17 1.87 0.06 0.58 0.17 1.57 0.25 2.21s0.23 1.7 0.33 2.35 0.27 1.65 0.38 2.23c0.1 0.58 0.27 1.42 0.36 1.87 0.09 0.44 0.24 1.14 0.33 1.54s0.27 1.14 0.4 1.64c0.12 0.51 0.36 1.39 0.51 1.97 0.16 0.57 0.42 1.47 0.58 2.01 0.17 0.53 0.45 1.43 0.64 2 0.18 0.57 0.49 1.46 0.68 1.99s0.47 1.29 0.62 1.69c0.16 0.4 0.41 1.03 0.56 1.39 0.15 0.37 0.45 1.09 0.68 1.61 0.22 0.52 0.54 1.22 0.7 1.57 0.16 0.34 0.42 0.89 0.58 1.22 0.16 0.34 0.5 1.01 0.76 1.51 0.26 0.49 0.65 1.21 0.87 1.6s0.59 1.04 0.83 1.44 0.64 1.05 0.89 1.43c0.25 0.39 0.64 0.98 0.88 1.31 0.23 0.34 0.7 0.98 1.04 1.43 0.33 0.45 0.82 1.07 1.08 1.38s0.68 0.79 0.94 1.08c0.25 0.29 0.83 0.88 1.27 1.32 0.45 0.43 1.05 0.99 1.33 1.23 0.29 0.24 0.72 0.59 0.96 0.77 0.24 0.19 0.66 0.49 0.94 0.67 0.27 0.18 0.67 0.43 0.87 0.55s0.59 0.33 0.86 0.46c0.27 0.14 0.67 0.33 0.9 0.42 0.22 0.09 0.63 0.24 0.91 0.33 0.29 0.09 0.73 0.21 0.99 0.27s0.64 0.13 0.85 0.15c0.25 0.04 0.72 0.05 1.38 0.03 0.8-0.01 1.08-0.04 1.41-0.11 0.23-0.05 0.66-0.17 0.96-0.27s0.74-0.28 0.98-0.39c0.24-0.12 0.6-0.31 0.8-0.43 0.21-0.12 0.57-0.37 0.82-0.55 0.26-0.2 0.73-0.63 1.16-1.05 0.39-0.39 0.86-0.91 1.04-1.15 0.19-0.24 0.48-0.64 0.65-0.89 0.17-0.26 0.43-0.66 0.58-0.9 0.14-0.24 0.4-0.7 0.56-1.02 0.17-0.32 0.42-0.84 0.56-1.16 0.14-0.31 0.34-0.8 0.46-1.08 0.11-0.29 0.3-0.79 0.41-1.12 0.12-0.33 0.29-0.85 0.38-1.16l0.18-0.55 0.13 0.08c0.07 0.04 0.51 0.29 0.97 0.55 0.45 0.25 1.43 0.76 2.16 1.12 0.74 0.37 1.69 0.82 2.11 1 0.43 0.19 1.11 0.48 1.52 0.65 0.42 0.17 1.03 0.41 1.36 0.53 0.33 0.13 0.91 0.34 1.28 0.47s1 0.34 1.4 0.46c0.39 0.13 1.07 0.33 1.51 0.46 0.43 0.12 1.12 0.31 1.52 0.41s1.11 0.27 1.58 0.37c0.47 0.11 1.26 0.27 1.76 0.36 0.49 0.09 1.28 0.22 1.75 0.29s1.25 0.18 1.73 0.23c0.48 0.06 1.22 0.13 1.65 0.17 0.42 0.03 1.08 0.08 1.45 0.11 0.38 0.02 1.36 0.05 2.17 0.06 0.89 0.02 1.97 0.01 2.69-0.02 0.67-0.02 1.58-0.07 2.03-0.11 0.44-0.03 1.17-0.1 1.6-0.14 0.44-0.05 1.14-0.13 1.57-0.19 0.42-0.06 1.2-0.18 1.73-0.27 0.52-0.09 1.27-0.23 1.66-0.31s0.93-0.19 1.19-0.25 0.82-0.2 1.23-0.3 1.14-0.3 1.61-0.43c0.47-0.14 1.2-0.36 1.62-0.5 0.43-0.14 1-0.32 1.27-0.42 0.27-0.09 0.78-0.28 1.14-0.41 0.36-0.14 0.9-0.35 1.2-0.47 0.3-0.11 0.79-0.32 1.09-0.44 0.29-0.13 0.83-0.36 1.18-0.52 0.36-0.16 1.12-0.53 1.69-0.81 0.58-0.28 1.36-0.69 1.75-0.9s1.02-0.56 1.39-0.77l0.67-0.39 0.09 0.3c0.05 0.17 0.22 0.71 0.39 1.2 0.16 0.49 0.44 1.27 0.62 1.73s0.55 1.26 0.81 1.79 0.62 1.21 0.81 1.52 0.48 0.77 0.65 1.01 0.47 0.65 0.67 0.9 0.62 0.7 0.93 1.01 0.79 0.74 1.06 0.94c0.28 0.21 0.67 0.48 0.87 0.6s0.56 0.31 0.81 0.43c0.24 0.11 0.65 0.28 0.92 0.37s0.68 0.2 0.91 0.25c0.33 0.07 0.6 0.1 1.41 0.11 0.67 0.02 1.12 0.01 1.38-0.03 0.21-0.02 0.55-0.08 0.76-0.13 0.22-0.04 0.59-0.13 0.84-0.2 0.24-0.08 0.69-0.23 0.99-0.35 0.29-0.11 0.8-0.34 1.12-0.51 0.32-0.16 0.79-0.42 1.05-0.57 0.25-0.15 0.69-0.44 0.98-0.64 0.28-0.2 0.74-0.54 1.01-0.75 0.27-0.22 0.71-0.59 0.98-0.83 0.27-0.23 0.76-0.69 1.09-1.03 0.33-0.33 0.81-0.82 1.05-1.09 0.25-0.27 0.7-0.78 1-1.14s0.82-1.03 1.16-1.47c0.33-0.45 0.8-1.1 1.04-1.44s0.66-0.97 0.94-1.41 0.73-1.17 0.99-1.61c0.27-0.45 0.68-1.18 0.93-1.63 0.24-0.45 0.71-1.35 1.04-2 0.32-0.66 0.73-1.49 0.89-1.86 0.17-0.37 0.47-1.03 0.66-1.48 0.2-0.45 0.53-1.24 0.73-1.75 0.21-0.52 0.52-1.3 0.68-1.75 0.17-0.45 0.46-1.25 0.64-1.77 0.18-0.53 0.49-1.45 0.67-2.04 0.19-0.6 0.49-1.61 0.68-2.26 0.18-0.64 0.46-1.67 0.62-2.29s0.4-1.64 0.54-2.25c0.14-0.62 0.36-1.59 0.48-2.15s0.3-1.42 0.39-1.9c0.1-0.48 0.26-1.37 0.36-1.98s0.24-1.5 0.31-1.98c0.07-0.49 0.17-1.26 0.23-1.73s0.14-1.24 0.19-1.71c0.04-0.47 0.1-1.09 0.13-1.38 0.02-0.28 0.07-0.97 0.1-1.52s0.08-1.71 0.11-2.58c0.03-1.14 0.03-2.02 0-3.12-0.03-0.85-0.07-1.84-0.09-2.2s-0.07-0.98-0.11-1.38c-0.03-0.4-0.11-1.13-0.16-1.62-0.06-0.5-0.17-1.27-0.24-1.71-0.06-0.45-0.2-1.24-0.31-1.76-0.1-0.52-0.27-1.32-0.39-1.77-0.11-0.46-0.29-1.12-0.39-1.48-0.1-0.35-0.3-0.97-0.44-1.38-0.14-0.4-0.35-0.98-0.48-1.29-0.12-0.31-0.32-0.78-0.44-1.04s-0.35-0.74-0.52-1.06-0.44-0.81-0.61-1.09c-0.16-0.27-0.4-0.65-0.53-0.83s-0.35-0.49-0.5-0.69c-0.15-0.19-0.39-0.49-0.54-0.67-0.15-0.17-0.5-0.52-0.77-0.79l-0.49-0.48-0.11-1.04c-0.05-0.57-0.14-1.34-0.19-1.71-0.04-0.37-0.13-0.99-0.18-1.38-0.06-0.39-0.18-1.1-0.26-1.58s-0.21-1.22-0.29-1.65c-0.08-0.42-0.25-1.24-0.37-1.81-0.13-0.57-0.34-1.49-0.48-2.03-0.13-0.55-0.34-1.34-0.46-1.75-0.11-0.42-0.32-1.14-0.46-1.6s-0.42-1.34-0.63-1.96c-0.2-0.62-0.55-1.6-0.76-2.17-0.22-0.57-0.53-1.39-0.7-1.81-0.18-0.43-0.47-1.13-0.66-1.57-0.19-0.43-0.52-1.17-0.74-1.64s-0.59-1.25-0.83-1.73-0.64-1.26-0.89-1.72c-0.25-0.47-0.64-1.18-0.88-1.59-0.23-0.4-0.65-1.12-0.94-1.59l-0.51-0.85-0.98-10.05c-0.54-5.53-1.44-14.83-2-20.67-0.56-5.83-1.03-10.61-1.04-10.62 0 0-4 2.81-8.87 6.26-4.88 3.44-10.39 7.34-12.25 8.66l-3.38 2.41-0.68-0.25c-0.38-0.14-1-0.37-1.39-0.5-0.39-0.14-1.04-0.35-1.44-0.48-0.4-0.12-1.02-0.31-1.39-0.41-0.36-0.1-1.06-0.29-1.56-0.42-0.5-0.12-1.17-0.29-1.49-0.36s-0.95-0.2-1.4-0.29c-0.44-0.09-1.23-0.22-1.75-0.31-0.51-0.08-1.31-0.19-1.77-0.25s-1.25-0.14-1.75-0.19c-0.51-0.04-1.29-0.1-1.73-0.13-0.5-0.04-1.63-0.05-2.9-0.05-1.53 0-2.37 0.02-3.15 0.07-0.58 0.04-1.43 0.11-1.87 0.16-0.45 0.04-1.12 0.11-1.48 0.16-0.37 0.05-0.98 0.13-1.36 0.19s-1.14 0.19-1.69 0.29-1.46 0.29-2.03 0.41c-0.56 0.13-1.28 0.3-1.61 0.38l-0.59 0.15-3.87-2.8c-2.66-1.92-6.48-4.62-12.17-8.58-4.57-3.17-8.42-5.85-8.56-5.96h0.01l-0.26-0.18zm4.33 15.02l5.82 3.49c3.2 1.92 5.81 3.5 5.81 3.51s-2.57 1.5-5.72 3.29c-3.15 1.8-5.76 3.3-5.81 3.33l-0.1 0.06v-13.68zm71.88 1.18c0.01 0.01 0.16 3.08 0.34 6.82 0.19 3.75 0.33 6.82 0.33 6.82-0.01 0.01-1.46-0.73-3.23-1.64-1.76-0.91-4.49-2.33-6.05-3.16-1.57-0.82-2.85-1.51-2.85-1.52s1.32-0.85 2.93-1.86c1.61-1.02 4.19-2.66 5.73-3.65 1.53-1 2.8-1.81 2.8-1.81zm-20.08 16.5c0.61 0 1.44 0.01 1.85 0.04 0.41 0.02 1.03 0.07 1.37 0.11 0.35 0.03 0.9 0.1 1.23 0.14 0.34 0.05 0.95 0.15 1.36 0.23s1.12 0.23 1.58 0.35c0.46 0.11 1.15 0.3 1.53 0.42 0.38 0.11 1 0.32 1.39 0.46s1.04 0.4 1.44 0.57 1.13 0.5 1.61 0.74 1.18 0.62 1.56 0.84 1.01 0.61 1.4 0.87 0.98 0.67 1.31 0.92 0.85 0.66 1.15 0.91 0.82 0.71 1.16 1.02 0.84 0.8 1.11 1.09 0.64 0.69 0.82 0.9 0.48 0.57 0.67 0.79c0.18 0.23 0.49 0.63 0.69 0.9 0.19 0.26 0.54 0.76 0.77 1.1 0.23 0.35 0.54 0.83 0.69 1.08 0.15 0.26 0.42 0.74 0.6 1.09 0.19 0.34 0.45 0.88 0.6 1.19 0.14 0.31 0.4 0.9 0.56 1.31 0.17 0.41 0.42 1.1 0.56 1.53 0.14 0.42 0.32 1.06 0.42 1.41 0.09 0.36 0.21 0.87 0.27 1.13 0.06 0.27 0.15 0.77 0.21 1.11s0.14 0.94 0.19 1.33c0.04 0.39 0.1 1.07 0.13 1.52 0.03 0.48 0.04 1.18 0.02 1.73-0.01 0.5-0.06 1.23-0.09 1.6-0.04 0.38-0.1 0.95-0.15 1.28-0.05 0.32-0.14 0.87-0.21 1.23-0.07 0.35-0.21 0.98-0.31 1.39-0.11 0.42-0.34 1.2-0.52 1.74-0.18 0.53-0.45 1.27-0.6 1.64s-0.49 1.1-0.75 1.63-0.63 1.22-0.82 1.54-0.53 0.88-0.77 1.24c-0.23 0.35-0.61 0.9-0.84 1.2-0.23 0.31-0.61 0.8-0.84 1.08-0.24 0.29-0.64 0.76-0.9 1.05-0.26 0.28-0.75 0.79-1.09 1.12-0.34 0.34-0.84 0.8-1.1 1.03s-0.74 0.63-1.05 0.88c-0.32 0.25-0.86 0.66-1.19 0.9-0.34 0.24-0.85 0.59-1.14 0.77s-0.78 0.48-1.1 0.67-1.03 0.57-1.57 0.83c-0.54 0.27-1.26 0.61-1.6 0.76-0.34 0.14-0.95 0.38-1.36 0.53-0.4 0.15-1.06 0.37-1.46 0.49s-1.04 0.3-1.41 0.39c-0.37 0.1-1 0.24-1.4 0.32-0.39 0.08-1.04 0.19-1.44 0.25s-1.01 0.13-1.36 0.17c-0.34 0.03-0.96 0.08-1.37 0.1s-1.03 0.04-1.37 0.04c-0.35 0-0.99-0.01-1.43-0.04-0.43-0.02-1.09-0.07-1.46-0.1-0.36-0.04-1-0.12-1.41-0.17-0.4-0.06-1.07-0.17-1.47-0.25-0.41-0.08-1.01-0.21-1.34-0.29-0.34-0.08-0.93-0.24-1.32-0.36-0.39-0.11-0.91-0.27-1.15-0.35s-0.7-0.25-1.02-0.38c-0.32-0.12-0.8-0.31-1.07-0.43-0.26-0.11-0.6-0.26-0.76-0.33l-0.28-0.13-0.54 1.1c-0.3 0.6-1.42 2.65-2.49 4.56s-1.96 3.47-1.97 3.47-0.86-1.45-1.88-3.22c-1.01-1.77-2.13-3.68-2.47-4.24-0.35-0.57-0.67-1.1-0.72-1.18l-0.1-0.16-0.46 0.23c-0.25 0.12-0.65 0.32-0.88 0.42-0.24 0.11-0.67 0.29-0.96 0.4-0.28 0.12-0.75 0.3-1.04 0.4-0.28 0.1-0.83 0.28-1.21 0.39-0.38 0.12-1.02 0.29-1.43 0.39-0.4 0.11-1.07 0.25-1.48 0.33-0.4 0.08-1.13 0.21-1.61 0.27-0.48 0.07-1.19 0.16-1.57 0.19-0.37 0.04-0.98 0.09-1.35 0.11s-0.99 0.04-1.38 0.04-1.02-0.02-1.41-0.04-1-0.07-1.36-0.11c-0.35-0.03-0.85-0.09-1.1-0.12-0.26-0.04-0.74-0.11-1.07-0.17s-0.82-0.15-1.08-0.21c-0.27-0.06-0.78-0.18-1.14-0.27s-0.94-0.25-1.27-0.36c-0.34-0.1-0.86-0.27-1.16-0.37-0.3-0.11-0.75-0.27-1-0.37s-0.6-0.24-0.77-0.32c-0.17-0.07-0.62-0.28-1.01-0.46-0.38-0.17-0.94-0.46-1.25-0.62-0.3-0.16-0.82-0.46-1.14-0.65s-0.87-0.54-1.23-0.77c-0.35-0.24-0.9-0.62-1.21-0.86-0.31-0.23-0.82-0.63-1.13-0.89-0.3-0.25-0.85-0.74-1.22-1.07-0.36-0.34-0.94-0.91-1.28-1.28s-0.79-0.88-1-1.13-0.59-0.74-0.85-1.08c-0.26-0.35-0.66-0.91-0.89-1.25-0.22-0.35-0.53-0.84-0.68-1.09s-0.42-0.73-0.61-1.08c-0.18-0.34-0.45-0.88-0.59-1.19-0.15-0.31-0.4-0.9-0.57-1.31-0.16-0.42-0.42-1.14-0.58-1.6-0.15-0.46-0.35-1.18-0.46-1.6-0.1-0.41-0.25-1.09-0.33-1.51-0.08-0.41-0.18-1.06-0.23-1.44s-0.1-0.91-0.13-1.17c-0.02-0.26-0.05-0.98-0.07-1.58-0.01-0.68 0-1.41 0.03-1.9 0.02-0.44 0.06-0.97 0.09-1.19 0.02-0.22 0.08-0.67 0.12-1 0.05-0.33 0.14-0.9 0.21-1.25 0.07-0.36 0.19-0.91 0.27-1.23s0.23-0.87 0.33-1.21 0.27-0.86 0.37-1.15c0.11-0.29 0.28-0.76 0.4-1.05 0.11-0.28 0.31-0.74 0.44-1.02 0.12-0.28 0.39-0.84 0.6-1.23 0.2-0.4 0.52-0.99 0.72-1.31 0.19-0.32 0.53-0.86 0.75-1.19 0.23-0.34 0.61-0.88 0.85-1.19 0.23-0.32 0.59-0.77 0.79-1.01s0.58-0.68 0.84-0.96c0.26-0.29 0.74-0.79 1.07-1.11s0.81-0.77 1.08-1c0.26-0.23 0.66-0.57 0.89-0.75 0.23-0.19 0.65-0.52 0.94-0.73s0.81-0.58 1.17-0.81c0.35-0.24 0.83-0.54 1.06-0.68s0.6-0.35 0.81-0.47 0.7-0.37 1.08-0.56 0.89-0.44 1.13-0.54c0.25-0.11 0.71-0.31 1.05-0.44 0.33-0.13 0.84-0.33 1.14-0.43 0.3-0.11 0.83-0.28 1.17-0.38 0.34-0.11 0.95-0.28 1.35-0.38 0.41-0.1 1.01-0.24 1.34-0.31s0.91-0.17 1.29-0.23 1.05-0.14 1.48-0.19c0.44-0.04 1.13-0.1 1.54-0.12 0.41-0.03 1.24-0.05 1.86-0.05 0.61 0 1.42 0.02 1.79 0.05 0.38 0.02 1.03 0.08 1.44 0.12 0.42 0.05 1.07 0.14 1.46 0.21 0.39 0.06 1.02 0.18 1.4 0.27 0.38 0.08 0.97 0.22 1.31 0.31 0.35 0.1 1.04 0.31 1.55 0.48 0.5 0.17 1.2 0.42 1.54 0.55 0.34 0.14 0.82 0.34 1.05 0.45 0.24 0.1 0.74 0.34 1.11 0.53s0.95 0.49 1.29 0.69c0.34 0.19 0.88 0.52 1.21 0.73 0.33 0.2 0.78 0.51 1.01 0.67s0.61 0.44 0.84 0.62l0.43 0.32 0.69-0.52c0.38-0.28 1.02-0.73 1.41-0.99 0.4-0.26 1.03-0.65 1.41-0.88 0.37-0.22 1.07-0.59 1.54-0.83s1.05-0.52 1.29-0.63 0.69-0.3 1-0.42c0.31-0.13 0.85-0.33 1.2-0.46 0.35-0.12 0.92-0.31 1.27-0.41 0.35-0.11 0.93-0.27 1.29-0.36 0.35-0.08 0.88-0.2 1.16-0.26 0.29-0.06 0.75-0.15 1.02-0.19 0.28-0.05 0.81-0.12 1.19-0.17 0.38-0.04 0.95-0.1 1.27-0.13 0.32-0.02 0.7-0.05 0.84-0.05 0.14-0.01 0.75-0.02 1.36-0.02v-0.01zm3.14 6.7c-0.65-0.01-1.25-0.01-1.34 0s-0.4 0.04-0.69 0.06c-0.28 0.03-0.76 0.08-1.06 0.13-0.3 0.04-0.82 0.13-1.15 0.2s-0.84 0.2-1.14 0.28-0.81 0.24-1.15 0.36c-0.33 0.12-0.87 0.32-1.19 0.46-0.32 0.13-0.84 0.38-1.15 0.53-0.31 0.16-0.83 0.45-1.16 0.65-0.34 0.2-0.82 0.51-1.09 0.7-0.26 0.18-0.65 0.46-0.85 0.63-0.21 0.16-0.57 0.46-0.82 0.67-0.24 0.2-0.68 0.62-0.98 0.92-0.29 0.3-0.72 0.75-0.95 1.02-0.22 0.26-0.57 0.69-0.77 0.96-0.2 0.26-0.52 0.7-0.7 0.98-0.19 0.27-0.47 0.73-0.63 1.01-0.17 0.28-0.49 0.89-0.72 1.35-0.22 0.47-0.5 1.07-0.6 1.35-0.11 0.27-0.3 0.8-0.42 1.17-0.12 0.36-0.31 1-0.41 1.42-0.1 0.41-0.25 1.09-0.32 1.52-0.07 0.42-0.15 1.05-0.19 1.39-0.03 0.34-0.07 0.99-0.09 1.44-0.01 0.48 0 1.11 0.02 1.55 0.03 0.4 0.09 1.02 0.14 1.37 0.04 0.36 0.14 0.97 0.22 1.36s0.21 0.96 0.3 1.27c0.08 0.31 0.23 0.82 0.33 1.12 0.11 0.31 0.29 0.8 0.4 1.09 0.12 0.29 0.36 0.82 0.53 1.19 0.18 0.36 0.45 0.89 0.61 1.16 0.16 0.28 0.48 0.8 0.71 1.15 0.24 0.36 0.57 0.84 0.75 1.07 0.18 0.22 0.5 0.63 0.73 0.89 0.23 0.27 0.73 0.79 1.11 1.17 0.39 0.38 0.87 0.83 1.08 1.01 0.21 0.17 0.58 0.47 0.83 0.66 0.26 0.19 0.72 0.52 1.05 0.73 0.32 0.21 0.8 0.5 1.06 0.65s0.69 0.38 0.94 0.5c0.25 0.13 0.75 0.36 1.1 0.51 0.36 0.15 0.99 0.38 1.4 0.52 0.42 0.14 1.06 0.33 1.44 0.42 0.38 0.1 1.01 0.23 1.4 0.29 0.39 0.07 1 0.16 1.36 0.2 0.44 0.05 1 0.07 1.81 0.07 0.67 0 1.37-0.02 1.64-0.05s0.73-0.09 1.03-0.13c0.29-0.05 0.81-0.14 1.14-0.21s0.91-0.21 1.27-0.32c0.37-0.1 0.87-0.26 1.11-0.35 0.24-0.08 0.65-0.24 0.92-0.35 0.26-0.11 0.8-0.36 1.2-0.56 0.41-0.2 0.99-0.52 1.31-0.71s0.81-0.51 1.09-0.7c0.27-0.2 0.77-0.57 1.09-0.83s0.82-0.69 1.11-0.96 0.71-0.69 0.93-0.93c0.22-0.23 0.53-0.59 0.7-0.79s0.46-0.57 0.65-0.82 0.52-0.72 0.74-1.04c0.21-0.32 0.49-0.78 0.63-1.02s0.38-0.71 0.55-1.03c0.16-0.32 0.39-0.83 0.52-1.14 0.13-0.3 0.32-0.78 0.42-1.06s0.27-0.8 0.37-1.17c0.11-0.37 0.25-0.92 0.31-1.23 0.07-0.31 0.18-0.88 0.23-1.25 0.06-0.38 0.13-0.93 0.16-1.21 0.03-0.3 0.05-1.03 0.05-1.71 0-0.84-0.02-1.39-0.07-1.86-0.04-0.36-0.13-0.99-0.2-1.4-0.06-0.4-0.2-1.07-0.31-1.48-0.1-0.42-0.29-1.06-0.41-1.44-0.12-0.37-0.31-0.91-0.42-1.18-0.11-0.28-0.42-0.95-0.69-1.5s-0.67-1.28-0.88-1.62c-0.22-0.34-0.56-0.85-0.76-1.13-0.2-0.29-0.56-0.76-0.81-1.05-0.24-0.3-0.75-0.86-1.13-1.24-0.38-0.39-0.92-0.9-1.19-1.13s-0.67-0.56-0.89-0.73c-0.23-0.17-0.67-0.48-0.99-0.69-0.32-0.22-0.77-0.5-1-0.63s-0.69-0.37-1.03-0.54c-0.33-0.17-0.83-0.4-1.1-0.52-0.28-0.11-0.71-0.28-0.98-0.38-0.26-0.09-0.77-0.25-1.12-0.36-0.36-0.1-1.02-0.26-1.46-0.34-0.45-0.09-1.15-0.21-1.57-0.26-0.54-0.06-1.07-0.09-1.91-0.1zm-42.2 0.5c-0.64-0.01-1.24-0.01-1.33 0-0.1 0.01-0.4 0.04-0.69 0.06-0.29 0.03-0.77 0.08-1.07 0.13-0.29 0.04-0.81 0.13-1.14 0.2s-0.85 0.2-1.14 0.28c-0.3 0.08-0.81 0.24-1.15 0.36-0.33 0.12-0.87 0.32-1.19 0.46-0.33 0.14-0.84 0.38-1.15 0.53-0.31 0.16-0.83 0.45-1.17 0.65-0.33 0.2-0.82 0.51-1.08 0.7-0.27 0.18-0.65 0.46-0.86 0.63-0.2 0.16-0.57 0.46-0.81 0.67s-0.68 0.62-0.98 0.92-0.73 0.75-0.95 1.02c-0.23 0.26-0.57 0.69-0.78 0.96-0.2 0.26-0.51 0.7-0.7 0.98-0.18 0.27-0.46 0.73-0.63 1.01s-0.48 0.89-0.71 1.35c-0.23 0.47-0.5 1.07-0.61 1.35-0.11 0.27-0.3 0.8-0.42 1.17-0.12 0.36-0.3 1-0.41 1.42-0.1 0.41-0.24 1.09-0.31 1.52-0.07 0.42-0.16 1.05-0.19 1.39-0.04 0.34-0.08 0.99-0.09 1.44-0.02 0.49-0.01 1.11 0.02 1.55 0.03 0.4 0.09 1.02 0.13 1.37 0.05 0.36 0.15 0.97 0.23 1.36s0.21 0.96 0.29 1.27c0.09 0.31 0.24 0.82 0.34 1.12 0.1 0.31 0.28 0.8 0.4 1.09 0.11 0.29 0.35 0.82 0.53 1.19s0.45 0.89 0.6 1.16c0.16 0.28 0.48 0.8 0.72 1.15 0.23 0.36 0.57 0.84 0.75 1.07 0.17 0.22 0.5 0.63 0.73 0.89 0.22 0.27 0.72 0.79 1.11 1.17 0.38 0.38 0.87 0.83 1.08 1.01 0.2 0.17 0.58 0.47 0.83 0.66s0.72 0.52 1.04 0.73 0.8 0.5 1.06 0.65c0.27 0.15 0.69 0.38 0.94 0.5 0.26 0.13 0.75 0.36 1.11 0.51s0.98 0.38 1.4 0.52c0.41 0.14 1.06 0.33 1.44 0.42 0.37 0.1 1 0.23 1.39 0.29 0.39 0.07 0.99 0.16 1.33 0.19 0.34 0.04 0.99 0.08 1.44 0.09 0.48 0.02 1.09 0.01 1.48-0.02 0.37-0.03 0.9-0.08 1.18-0.11 0.28-0.04 0.77-0.11 1.09-0.17 0.31-0.05 0.84-0.17 1.18-0.25 0.33-0.08 0.96-0.27 1.39-0.41 0.44-0.15 1.06-0.38 1.39-0.52s0.82-0.37 1.1-0.51 0.71-0.37 0.95-0.51c0.24-0.13 0.66-0.39 0.92-0.56s0.69-0.47 0.94-0.65c0.25-0.19 0.69-0.54 0.98-0.78 0.28-0.24 0.78-0.69 1.1-1.02 0.32-0.32 0.77-0.8 1-1.06 0.22-0.26 0.57-0.69 0.77-0.96 0.2-0.26 0.55-0.75 0.77-1.09 0.21-0.33 0.51-0.81 0.66-1.06 0.14-0.25 0.41-0.78 0.6-1.17s0.43-0.92 0.53-1.19c0.11-0.26 0.27-0.7 0.36-0.97 0.1-0.28 0.25-0.78 0.34-1.11s0.23-0.92 0.31-1.31 0.18-1 0.23-1.36c0.04-0.35 0.1-0.92 0.12-1.25 0.03-0.33 0.05-0.98 0.05-1.44 0-0.47-0.02-1.13-0.05-1.48-0.02-0.36-0.08-0.94-0.12-1.31-0.05-0.37-0.13-0.91-0.19-1.21s-0.17-0.8-0.25-1.11-0.2-0.78-0.29-1.04c-0.08-0.27-0.23-0.71-0.33-0.99-0.11-0.28-0.27-0.7-0.36-0.92-0.1-0.22-0.33-0.71-0.52-1.09s-0.47-0.91-0.62-1.17c-0.16-0.26-0.47-0.75-0.7-1.08-0.22-0.34-0.58-0.83-0.79-1.09-0.22-0.27-0.59-0.71-0.82-0.97-0.24-0.27-0.66-0.71-0.94-0.97-0.28-0.27-0.69-0.64-0.9-0.82-0.22-0.18-0.58-0.46-0.8-0.63-0.21-0.17-0.59-0.44-0.84-0.61-0.25-0.16-0.65-0.42-0.9-0.57-0.24-0.15-0.74-0.41-1.09-0.59-0.36-0.18-0.86-0.42-1.13-0.54-0.26-0.11-0.72-0.29-1.02-0.4-0.29-0.11-0.83-0.28-1.19-0.39-0.35-0.1-1.01-0.26-1.46-0.34-0.44-0.09-1.15-0.21-1.56-0.26-0.54-0.06-1.08-0.09-1.92-0.1zm41.52 5.82c0.26 0 0.72 0.02 1.02 0.04 0.29 0.03 0.76 0.08 1.04 0.13 0.28 0.04 0.7 0.12 0.94 0.18 0.24 0.05 0.65 0.17 0.91 0.25 0.26 0.09 0.68 0.24 0.93 0.34s0.68 0.3 0.95 0.44c0.27 0.13 0.72 0.39 1 0.57 0.29 0.18 0.74 0.49 1.02 0.71 0.28 0.21 0.53 0.41 0.56 0.44 0.04 0.06 0 0.07-0.36 0.07-0.23 0-0.59 0.03-0.81 0.06-0.21 0.04-0.53 0.11-0.7 0.17-0.18 0.06-0.47 0.18-0.65 0.27-0.19 0.1-0.47 0.27-0.64 0.4s-0.43 0.36-0.58 0.51-0.37 0.43-0.5 0.61c-0.12 0.19-0.29 0.48-0.36 0.65-0.08 0.17-0.18 0.42-0.23 0.56s-0.12 0.4-0.15 0.58c-0.04 0.19-0.08 0.54-0.1 0.79-0.01 0.26 0 0.62 0.03 0.83 0.03 0.2 0.09 0.53 0.15 0.73s0.21 0.57 0.33 0.82c0.13 0.25 0.32 0.58 0.44 0.73 0.11 0.15 0.36 0.43 0.55 0.61s0.47 0.41 0.61 0.51 0.43 0.26 0.64 0.36c0.22 0.1 0.55 0.23 0.75 0.29s0.53 0.13 0.73 0.15c0.22 0.03 0.56 0.04 0.83 0.03 0.27-0.02 0.62-0.07 0.86-0.13 0.23-0.06 0.59-0.19 0.8-0.29 0.22-0.1 0.51-0.26 0.65-0.36 0.14-0.09 0.35-0.26 0.47-0.37 0.12-0.1 0.33-0.31 0.46-0.46s0.31-0.37 0.4-0.5c0.08-0.13 0.22-0.37 0.3-0.54 0.12-0.22 0.16-0.28 0.18-0.23 0.01 0.04 0.07 0.39 0.13 0.78 0.05 0.39 0.12 0.97 0.15 1.28 0.03 0.35 0.04 0.9 0.03 1.48-0.02 0.5-0.06 1.13-0.09 1.39-0.04 0.27-0.12 0.71-0.18 1-0.05 0.28-0.18 0.76-0.27 1.07s-0.26 0.81-0.39 1.12c-0.12 0.32-0.36 0.84-0.53 1.16-0.17 0.33-0.47 0.84-0.67 1.15-0.2 0.3-0.52 0.74-0.71 0.98-0.19 0.23-0.54 0.63-0.78 0.88s-0.65 0.63-0.92 0.86c-0.26 0.22-0.66 0.52-0.87 0.68-0.22 0.15-0.6 0.39-0.84 0.53-0.24 0.15-0.66 0.37-0.93 0.5-0.28 0.13-0.73 0.32-1 0.43-0.28 0.1-0.71 0.24-0.96 0.31-0.26 0.07-0.7 0.18-0.98 0.24-0.29 0.05-0.72 0.12-0.96 0.15-0.27 0.03-0.89 0.06-1.59 0.06-0.68 0-1.3-0.02-1.54-0.06-0.22-0.03-0.59-0.09-0.83-0.13-0.24-0.05-0.66-0.14-0.92-0.21s-0.71-0.21-1-0.32c-0.29-0.1-0.77-0.3-1.07-0.45-0.29-0.14-0.78-0.4-1.08-0.58s-0.8-0.52-1.11-0.75c-0.39-0.29-0.79-0.65-1.31-1.17-0.55-0.55-0.88-0.92-1.21-1.37-0.25-0.33-0.57-0.8-0.71-1.04-0.15-0.23-0.36-0.62-0.49-0.87-0.12-0.24-0.29-0.6-0.38-0.81-0.08-0.21-0.23-0.59-0.32-0.86-0.09-0.26-0.22-0.69-0.29-0.95-0.06-0.27-0.15-0.68-0.2-0.92s-0.11-0.64-0.14-0.88c-0.03-0.27-0.05-0.89-0.05-1.62s0.02-1.36 0.05-1.63c0.03-0.24 0.11-0.71 0.18-1.04 0.06-0.33 0.18-0.83 0.26-1.11 0.08-0.27 0.23-0.71 0.33-0.98 0.11-0.26 0.27-0.64 0.36-0.85 0.09-0.2 0.28-0.55 0.41-0.79 0.13-0.23 0.37-0.63 0.54-0.88 0.16-0.25 0.47-0.67 0.67-0.92s0.56-0.66 0.8-0.91c0.25-0.25 0.66-0.63 0.92-0.85 0.26-0.23 0.67-0.54 0.9-0.7 0.23-0.17 0.61-0.42 0.85-0.56 0.24-0.15 0.7-0.39 1.02-0.55 0.32-0.15 0.79-0.35 1.05-0.44 0.25-0.09 0.65-0.23 0.9-0.3 0.24-0.07 0.65-0.17 0.92-0.23 0.26-0.05 0.7-0.13 0.99-0.17 0.29-0.03 0.61-0.07 0.71-0.07 0.1-0.01 0.41-0.02 0.68-0.03zm-40.7 0.67c0.27 0 0.73 0.01 1.02 0.04 0.3 0.02 0.77 0.08 1.05 0.12 0.28 0.05 0.7 0.13 0.94 0.19 0.24 0.05 0.64 0.17 0.91 0.25 0.26 0.08 0.68 0.24 0.93 0.34s0.68 0.3 0.95 0.44c0.27 0.13 0.72 0.39 1 0.57 0.28 0.17 0.74 0.49 1.02 0.7s0.53 0.42 0.56 0.45c0.04 0.06 0 0.06-0.36 0.06-0.23 0-0.59 0.03-0.81 0.07-0.21 0.03-0.53 0.11-0.71 0.17-0.17 0.05-0.46 0.18-0.65 0.27-0.18 0.09-0.47 0.27-0.64 0.4-0.16 0.12-0.43 0.35-0.57 0.5-0.15 0.16-0.38 0.44-0.5 0.62-0.12 0.19-0.29 0.48-0.37 0.65s-0.18 0.42-0.22 0.55c-0.05 0.14-0.12 0.41-0.16 0.59s-0.08 0.54-0.09 0.79c-0.01 0.26 0 0.62 0.03 0.83 0.02 0.2 0.09 0.53 0.15 0.73 0.05 0.2 0.2 0.57 0.33 0.82 0.12 0.25 0.32 0.58 0.43 0.73 0.12 0.15 0.37 0.42 0.56 0.61 0.19 0.18 0.46 0.41 0.61 0.51 0.14 0.1 0.43 0.26 0.64 0.36s0.55 0.23 0.75 0.29c0.2 0.05 0.53 0.12 0.73 0.15 0.21 0.03 0.56 0.04 0.82 0.02 0.28-0.01 0.63-0.06 0.87-0.12 0.23-0.06 0.58-0.19 0.8-0.29 0.21-0.11 0.5-0.26 0.63-0.36 0.14-0.09 0.35-0.25 0.48-0.36 0.12-0.11 0.33-0.32 0.47-0.47 0.13-0.15 0.31-0.38 0.39-0.51 0.09-0.12 0.23-0.36 0.31-0.53 0.11-0.22 0.16-0.29 0.18-0.23 0.01 0.04 0.07 0.39 0.12 0.78 0.06 0.39 0.13 0.93 0.15 1.19 0.03 0.26 0.05 0.78 0.05 1.15 0 0.36-0.02 0.89-0.05 1.16-0.02 0.28-0.08 0.74-0.13 1.03-0.04 0.28-0.15 0.8-0.24 1.14-0.09 0.35-0.25 0.87-0.35 1.16-0.11 0.29-0.3 0.75-0.42 1.02s-0.31 0.65-0.42 0.84c-0.1 0.19-0.28 0.5-0.4 0.69-0.12 0.18-0.31 0.47-0.42 0.63-0.12 0.16-0.38 0.49-0.57 0.73-0.2 0.24-0.58 0.66-0.85 0.92-0.27 0.27-0.69 0.65-0.94 0.85-0.24 0.2-0.68 0.52-0.97 0.71-0.28 0.19-0.71 0.45-0.95 0.58-0.23 0.13-0.65 0.33-0.93 0.46-0.29 0.12-0.72 0.29-0.98 0.38-0.25 0.08-0.66 0.2-0.91 0.27-0.25 0.06-0.7 0.16-0.98 0.2-0.29 0.05-0.78 0.11-1.09 0.14-0.34 0.03-0.9 0.04-1.46 0.02-0.49-0.01-1.04-0.04-1.23-0.07-0.18-0.02-0.53-0.08-0.77-0.13-0.24-0.04-0.65-0.14-0.91-0.21-0.27-0.07-0.72-0.21-1-0.31-0.29-0.1-0.77-0.31-1.07-0.45s-0.79-0.41-1.08-0.59c-0.3-0.18-0.8-0.51-1.11-0.74-0.39-0.29-0.79-0.65-1.32-1.17-0.55-0.56-0.87-0.92-1.2-1.37-0.26-0.34-0.58-0.81-0.72-1.04-0.14-0.24-0.35-0.63-0.48-0.87-0.12-0.24-0.29-0.61-0.38-0.81-0.09-0.21-0.23-0.59-0.32-0.86-0.09-0.26-0.22-0.69-0.29-0.96-0.07-0.26-0.16-0.67-0.2-0.91-0.05-0.25-0.11-0.64-0.14-0.88-0.03-0.27-0.06-0.9-0.06-1.63 0-0.72 0.03-1.35 0.06-1.62 0.03-0.24 0.11-0.71 0.17-1.04 0.07-0.34 0.19-0.83 0.27-1.11 0.08-0.27 0.23-0.72 0.33-0.98s0.26-0.64 0.36-0.85c0.09-0.2 0.28-0.56 0.41-0.79 0.12-0.23 0.37-0.63 0.53-0.88 0.17-0.26 0.47-0.67 0.67-0.92s0.63-0.72 0.95-1.04c0.33-0.33 0.8-0.75 1.05-0.96 0.25-0.2 0.66-0.5 0.92-0.67 0.25-0.17 0.66-0.42 0.91-0.55 0.25-0.14 0.69-0.36 0.97-0.49 0.29-0.13 0.82-0.33 1.19-0.46 0.38-0.12 0.94-0.28 1.26-0.35 0.33-0.07 0.82-0.15 1.11-0.19 0.28-0.04 0.6-0.07 0.71-0.08 0.1-0.01 0.4-0.02 0.67-0.02zm154.38 2.69c-0.35 0.04-0.87 0.11-1.57 0.19-0.66 0.05-1.34 0.14-2.03 0.27-0.66 0.09-1.27 0.17-1.84 0.26s-0.92 0.15-1.05 0.2l-5.96 1.77c-0.87 0.26-1.79 0.69-2.75 1.31-0.96 0.61-1.81 1.2-2.56 1.77-0.48 0.3-0.83 0.76-1.05 1.37h0.07 0.07c0.13-0.04 0.3-0.06 0.52-0.06 0.22-0.05 0.35-0.07 0.39-0.07 0.13-0.04 0.33-0.11 0.59-0.2 0.31-0.08 0.64-0.17 0.99-0.26 0.35-0.13 0.65-0.24 0.91-0.33 0.31-0.13 0.53-0.21 0.66-0.26l7.73-1.64h0.72l-3.15 6.36-4.65 14.48-2.29 15c0 0.05-0.02 0.37-0.06 0.99v1.37 3.54c0.04 1.22 0.3 2.38 0.78 3.47 0.13 0.09 0.26 0.13 0.39 0.13 0.18 0 0.44-0.04 0.79-0.13 0.31-0.08 0.72-0.22 1.25-0.39 0.56-0.18 1.09-0.35 1.57-0.53 0.52-0.13 0.96-0.26 1.31-0.39 0.39-0.13 0.61-0.2 0.65-0.2l20.84-9.3 6.49-4.39 2.03-2.03c0.61-0.65 1.09-1.4 1.44-2.23 0.39-0.87 0.59-1.74 0.59-2.62 0-1.05-0.24-1.94-0.72-2.68-0.48-0.79-1.12-1.47-1.9-2.04-0.75-0.61-1.58-1.09-2.49-1.44-0.92-0.39-1.79-0.72-2.62-0.98-0.22-0.04-0.53-0.11-0.92-0.2-0.35-0.08-0.74-0.17-1.18-0.26-0.39-0.13-0.76-0.22-1.11-0.26-0.31-0.09-0.51-0.13-0.59-0.13l-8.91-0.92 10.02-4.91c0.04-0.05 0.17-0.13 0.39-0.27 0.22-0.17 0.46-0.34 0.72-0.52 0.27-0.22 0.53-0.41 0.79-0.59 0.31-0.22 0.52-0.39 0.65-0.52 0.79-0.66 1.45-1.42 1.97-2.3 0.57-0.91 0.85-1.9 0.85-2.94 0-0.92-0.24-1.71-0.72-2.36-0.48-0.7-1.09-1.29-1.83-1.77s-1.55-0.85-2.43-1.12c-0.87-0.3-1.68-0.54-2.42-0.72-0.13-0.04-0.39-0.08-0.79-0.13-0.35-0.04-0.74-0.09-1.18-0.13-0.39-0.09-0.76-0.15-1.11-0.2-0.35-0.04-0.59-0.06-0.72-0.06h-2.88-2.69zm322.57 2.55c-0.08 0-0.21 0.07-0.39 0.2-0.17 0.13-0.28 0.22-0.33 0.26-0.13 0.18-0.37 0.44-0.72 0.79-0.3 0.31-0.48 0.5-0.52 0.59l-4.72 6.55-8.52 16.25-3.93 11.99-0.98 7.34 1.24 1.83 0.66-0.13c0.44-0.09 0.79-0.15 1.05-0.2 0.04-0.04 0.11-0.06 0.19-0.06l0.14-0.07 2.22-2.29 13.43-18.54 5.51-6.09c0.04-0.05 0.17-0.16 0.39-0.33 0.22-0.18 0.46-0.37 0.72-0.59l0.79-0.66c0.3-0.21 0.52-0.39 0.65-0.52 0.14-0.09 0.33-0.22 0.59-0.39 0.31-0.18 0.48-0.27 0.53-0.27h0.06v0.66c0.05 0.3 0.07 0.5 0.07 0.59 0 0.22-0.02 0.5-0.07 0.85-0.04 0.35-0.11 0.7-0.19 1.05-0.05 0.35-0.09 0.68-0.13 0.98-0.05 0.26-0.07 0.42-0.07 0.46l-4 13.69c-0.04 0.09-0.08 0.31-0.13 0.66-0.04 0.31-0.11 0.65-0.19 1.05-0.05 0.39-0.11 0.78-0.2 1.18-0.05 0.35-0.07 0.61-0.07 0.78v1.58c0 0.83 0.02 1.59 0.07 2.29 0.04 0.7 0.17 1.44 0.39 2.23 0.09 0.13 0.22 0.24 0.4 0.32 0.17 0.05 0.32 0.07 0.45 0.07h0.07l1.7-1.77c0-0.04-0.04-0.07-0.13-0.07-0.22 0-0.46 0.07-0.72 0.2-0.26 0.09-0.46 0.18-0.59 0.26-0.04-0.08-0.06-0.3-0.06-0.65v-0.66c0-0.96 0.04-1.9 0.13-2.81 0.13-0.96 0.37-1.91 0.72-2.82l5.5-15.99c0-0.04 0.02-0.2 0.07-0.46 0.04-0.26 0.09-0.56 0.13-0.91 0.09-0.35 0.15-0.68 0.19-0.99 0.05-0.35 0.07-0.63 0.07-0.85v-0.78c0-1.01-0.24-1.88-0.72-2.63-0.44-0.74-1.2-1.11-2.29-1.11-0.61 0-1.23 0.13-1.84 0.39-0.57 0.27-1.09 0.57-1.57 0.92-0.26 0.18-0.68 0.46-1.25 0.85-0.56 0.4-0.89 0.64-0.98 0.72l-5.18 5.11-13.43 18.48 0.73-3.41 3.4-10.74 11.66-23.92 0.07-0.46h-0.07zm-134.91 0.59l-0.85 0.99-11.73 28.24-3.21 13.56v0.26c0 0.39 0.07 0.76 0.2 1.11 0.09 0.35 0.33 0.62 0.72 0.79 0.09 0.09 0.28 0.15 0.59 0.2 0.31 0.04 0.5 0.06 0.59 0.06s0.26-0.06 0.52-0.19c0.31-0.18 0.51-0.31 0.59-0.4l1.77-1.7 25.03-30.53 1.31 16.57 2.95 12.32c0.22 0.74 0.63 1.49 1.24 2.23 0.62 0.7 1.34 1.05 2.17 1.05 0.3 0 0.52-0.02 0.65-0.07 0.18-0.04 0.44-0.15 0.79-0.33 0.13-0.04 0.3-0.1 0.52-0.19 0.22-0.13 0.44-0.24 0.66-0.33 0.22-0.13 0.41-0.24 0.59-0.33 0.22-0.08 0.37-0.15 0.46-0.19 0.13-0.05 0.3-0.16 0.52-0.33l0.79-0.53c0.3-0.21 0.56-0.41 0.78-0.59 0.26-0.17 0.44-0.3 0.53-0.39l0.46-0.46 0.78-0.78c0.31-0.26 0.57-0.51 0.79-0.72l0.52-0.53c0.09-0.13 0.24-0.35 0.46-0.65l0.66-0.92c0.26-0.35 0.5-0.66 0.72-0.92 0.21-0.3 0.37-0.52 0.46-0.65l0.58-0.99 0.79-1.44c0.26-0.48 0.48-0.91 0.66-1.31 0.21-0.39 0.35-0.63 0.39-0.72l2.95-8.45 2.42-13.3v-2.75c0-0.18-0.04-0.26-0.13-0.26-0.13 0-0.24 0.1-0.33 0.32l-0.19 0.4-8.32 23.19-2.95 4.72c-0.05 0.08-0.18 0.26-0.4 0.52-0.21 0.22-0.46 0.48-0.72 0.79l-0.85 0.85c-0.26 0.3-0.46 0.52-0.59 0.66-0.52 0.48-1.13 0.96-1.83 1.44s-1.4 0.83-2.1 1.05h-0.06-0.07l-0.33-0.66-1.51-4.72-4.45-25.03 4.39-6.29 1.44-2.88h-0.06l-2.1 1.7-4.39 4.66c-0.04-0.09-0.15-0.31-0.33-0.66l-0.33-0.65h-0.06c-0.05-0.05-0.07-0.09-0.07-0.13-0.13 0.43-0.22 0.89-0.26 1.37-0.04 0.44-0.06 0.87-0.06 1.31l-0.27 0.33-24.83 28.7 10.94-35.97v-1.45zm-191.46 0.79h7.6c0.09 0 0.31 0.02 0.65 0.07 0.35 0.04 0.72 0.11 1.12 0.19 0.43 0.05 0.87 0.09 1.31 0.13 0.44 0.05 0.76 0.09 0.98 0.13 0.09 0.05 0.39 0.14 0.92 0.27 0.52 0.13 0.9 0.21 1.11 0.26 0.09 0.04 0.29 0.13 0.59 0.26 0.31 0.09 0.61 0.22 0.92 0.39 0.31 0.14 0.57 0.29 0.79 0.46 0.26 0.18 0.39 0.35 0.39 0.53 0 0.17-0.07 0.37-0.2 0.59-0.13 0.17-0.24 0.32-0.32 0.46l-1.51 1.5-18.68 10.68v-0.39l4.33-15.53zm277.8 5.11l-1.84 1.57-3.47 4.79-10.94 2.36c-0.13 0.04-0.35 0.17-0.66 0.39-0.3 0.17-0.46 0.35-0.46 0.52 0.97 0.7 2.08 1.05 3.35 1.05h5.89l-6.02 12.25-3.02 9.9c0 0.04-0.04 0.37-0.13 0.98-0.04 0.57-0.07 1-0.07 1.31v0.52c0 0.75 0.07 1.49 0.2 2.23 0.18 0.7 0.44 1.33 0.79 1.9s0.81 1.03 1.37 1.38c0.57 0.35 1.27 0.52 2.1 0.52 1 0 1.96-0.19 2.88-0.59 0.96-0.39 1.86-0.85 2.69-1.37 0.13-0.09 0.35-0.24 0.65-0.46l1.05-0.79c0.4-0.26 0.75-0.5 1.05-0.72 0.31-0.26 0.52-0.46 0.66-0.59 0.08-0.04 0.22-0.15 0.39-0.33 0.22-0.17 0.33-0.35 0.33-0.52 0-0.09-0.07-0.13-0.2-0.13h-0.26c-0.35 0-0.74 0.06-1.18 0.19l-5.77 2.1c-0.3 0.09-0.59 0.15-0.85 0.2h-0.85c-0.44 0-0.79-0.05-1.05-0.13-0.22-0.14-0.37-0.44-0.46-0.92v-1.31-1.64c0.05-0.48 0.18-1.03 0.4-1.64l1.7-5.63 7.6-17.17c0.13-0.13 0.24-0.19 0.33-0.19l11.2-3.15c0.35-0.09 0.64-0.24 0.85-0.46 0.27-0.26 0.51-0.52 0.72-0.78-0.48-0.35-1-0.55-1.57-0.59-0.52-0.09-1.09-0.14-1.7-0.14h-0.53l-7.01 0.86h-0.13c0.26-1.01 0.66-1.93 1.18-2.76 0.52-0.87 0.79-1.83 0.79-2.88v-0.13zm-200.52 3.8c-0.48 0-0.98 0.09-1.51 0.26-0.48 0.13-0.91 0.31-1.31 0.53-0.13 0.08-0.35 0.24-0.65 0.46-0.26 0.17-0.55 0.37-0.85 0.59-0.27 0.17-0.51 0.35-0.72 0.52-0.22 0.13-0.35 0.22-0.4 0.26l-5.5 5.31c-0.09 0.09-0.24 0.26-0.46 0.52-0.18 0.26-0.39 0.53-0.65 0.79l-0.66 0.78c-0.18 0.27-0.31 0.44-0.39 0.53-0.05 0-0.09 0.02-0.13 0.06v-0.06l1.96-5.96v-1.51c-0.44 0.22-0.81 0.44-1.11 0.66-0.26 0.21-0.51 0.5-0.72 0.85-0.18 0.22-0.4 0.52-0.66 0.92-0.22 0.34-0.46 0.72-0.72 1.11-0.26 0.35-0.48 0.68-0.65 0.98-0.18 0.26-0.29 0.42-0.33 0.46l-3.54 7.34-2.75 8.84-0.92 6.75v0.85c0 0.75 0.02 1.51 0.07 2.3 0.04 0.78 0.26 1.5 0.65 2.16 0 0.04 0.02 0.11 0.07 0.2 0.04 0.08 0.11 0.13 0.19 0.13h0.07c0.04-0.05 0.11-0.16 0.2-0.33 0.13-0.18 0.21-0.28 0.26-0.33 0-0.09 0.04-0.17 0.13-0.26l3.47-12.78 8.78-11.79 7.34-6.88c0.04-0.04 0.2-0.13 0.46-0.26s0.46-0.24 0.59-0.33c0.08-0.09 0.22-0.13 0.39-0.13v0.13c0.04 0.04 0.07 0.09 0.07 0.13 0.08 0.18 0.15 0.46 0.19 0.85 0.09 0.35 0.13 0.55 0.13 0.59v7.73c0 0.05 0.03 0.27 0.07 0.66 0.09 0.35 0.15 0.63 0.2 0.85 0 0.05 0.02 0.11 0.06 0.2 0.04 0.08 0.11 0.13 0.2 0.13 0.22 0 0.39-0.16 0.52-0.46 0.13-0.35 0.22-0.59 0.26-0.72 0.05-0.22 0.14-0.5 0.27-0.85 0.13-0.4 0.24-0.77 0.32-1.12 0.13-0.39 0.24-0.74 0.33-1.05 0.09-0.3 0.13-0.48 0.13-0.52 0.05-0.17 0.09-0.48 0.13-0.92 0.09-0.48 0.16-0.96 0.2-1.44 0.09-0.48 0.15-0.94 0.2-1.37 0.08-0.48 0.13-0.81 0.13-0.99v-0.65c0-0.57-0.07-1.14-0.2-1.7-0.09-0.57-0.26-1.08-0.52-1.51-0.26-0.44-0.61-0.79-1.05-1.05-0.44-0.31-0.98-0.46-1.64-0.46zm22.97 0c-0.48 0-0.98 0.09-1.51 0.26-0.48 0.13-0.91 0.31-1.31 0.53-0.13 0.08-0.35 0.24-0.65 0.46-0.26 0.17-0.55 0.37-0.85 0.59-0.27 0.17-0.51 0.35-0.72 0.52-0.22 0.13-0.35 0.22-0.4 0.26l-5.5 5.31c-0.09 0.09-0.24 0.26-0.46 0.52-0.17 0.26-0.39 0.53-0.66 0.79l-0.65 0.78c-0.17 0.27-0.31 0.44-0.39 0.53-0.05 0-0.09 0.02-0.13 0.06v-0.06l1.96-5.96v-1.51c-0.44 0.22-0.81 0.44-1.11 0.66-0.26 0.21-0.5 0.5-0.72 0.85-0.18 0.22-0.4 0.52-0.66 0.92-0.22 0.34-0.46 0.72-0.72 1.11-0.26 0.35-0.48 0.68-0.65 0.98-0.18 0.26-0.29 0.42-0.33 0.46l-3.54 7.34-2.75 8.84-0.92 6.75v0.85c0 0.75 0.02 1.51 0.07 2.3 0.04 0.78 0.26 1.5 0.65 2.16 0 0.04 0.02 0.11 0.07 0.2 0.04 0.08 0.11 0.13 0.19 0.13h0.07c0.04-0.05 0.11-0.16 0.19-0.33 0.14-0.18 0.22-0.28 0.27-0.33 0-0.09 0.04-0.17 0.13-0.26l3.47-12.78 8.78-11.79 7.34-6.88c0.04-0.04 0.2-0.13 0.46-0.26s0.46-0.24 0.59-0.33c0.09-0.09 0.22-0.13 0.39-0.13v0.13c0.04 0.04 0.07 0.09 0.07 0.13 0.08 0.18 0.15 0.46 0.19 0.85 0.09 0.35 0.13 0.55 0.13 0.59v7.73c0 0.05 0.03 0.27 0.07 0.66 0.09 0.35 0.15 0.63 0.19 0.85 0 0.05 0.03 0.11 0.07 0.2 0.05 0.08 0.11 0.13 0.2 0.13 0.22 0 0.39-0.16 0.52-0.46 0.13-0.35 0.22-0.59 0.26-0.72 0.05-0.22 0.13-0.5 0.27-0.85 0.13-0.4 0.24-0.77 0.32-1.12 0.13-0.39 0.24-0.74 0.33-1.05 0.09-0.3 0.13-0.48 0.13-0.52 0.05-0.17 0.09-0.48 0.13-0.92 0.09-0.48 0.16-0.96 0.2-1.44 0.09-0.48 0.15-0.94 0.2-1.37 0.08-0.48 0.13-0.81 0.13-0.99v-0.65c0-0.57-0.07-1.14-0.2-1.7-0.09-0.57-0.26-1.08-0.52-1.51-0.27-0.44-0.61-0.79-1.05-1.05-0.44-0.31-0.98-0.46-1.64-0.46zm39.47 0.2l-0.66 0.65-10.16 20.18-2.29 7.34c0 0.04-0.02 0.24-0.06 0.59-0.09 0.35-0.16 0.74-0.2 1.18-0.09 0.39-0.15 0.81-0.2 1.25-0.04 0.43-0.09 0.78-0.13 1.04v0.79 0.65c0 0.05 0.11 0.24 0.33 0.59s0.37 0.62 0.46 0.79c0.08 0.18 0.15 0.26 0.19 0.26h0.33 0.33c0.22 0 0.48-0.02 0.79-0.06 0.35-0.05 0.54-0.07 0.59-0.07l3.79-2.75 9.64-8.98 7.4-9.1 0.07-0.13c-0.05 2.35 0 4.58 0.13 6.68 0.17 2.05 0.52 4.21 1.05 6.49 0.26 0.74 0.56 1.48 0.91 2.22 0.35 0.7 0.79 1.33 1.31 1.9 0.53 0.57 1.12 1.03 1.77 1.38 0.7 0.3 1.49 0.46 2.36 0.46 1.27 0 2.4-0.29 3.41-0.86 1.05-0.56 2.05-1.24 3.01-2.02 0.13-0.09 0.33-0.25 0.59-0.46l0.79-0.79 0.72-0.72 0.46-0.46 5.76-7.21 6.88-11.79 0.92-2.62-2.1 1.7-15.98 19c-0.22 0.27-0.51 0.55-0.86 0.86-0.34 0.26-0.74 0.52-1.17 0.78-0.44 0.22-0.88 0.42-1.32 0.59-0.43 0.13-0.8 0.2-1.11 0.2-0.48 0-0.92-0.16-1.31-0.46-0.35-0.35-0.66-0.77-0.92-1.25s-0.48-0.96-0.65-1.44l-0.33-1.31c-0.04-0.13-0.11-0.33-0.2-0.59-0.04-0.3-0.1-0.59-0.19-0.85-0.05-0.26-0.09-0.5-0.13-0.72-0.05-0.22-0.07-0.35-0.07-0.39l-1.24-12.32 1.7-4.26v-1.05c-0.39 0.22-0.74 0.55-1.05 0.99-0.3 0.43-0.57 0.8-0.79 1.11-0.17-0.35-0.26-0.68-0.26-0.98 0-0.35-0.11-0.68-0.32-0.99h-0.07c-0.18 0-0.33 0.18-0.46 0.53-0.09 0.3-0.15 0.5-0.19 0.59 0 0.13-0.05 0.35-0.14 0.65-0.04 0.31-0.08 0.64-0.13 0.99-0.04 0.3-0.11 0.61-0.19 0.91-0.05 0.26-0.07 0.46-0.07 0.59-0.09 0.09-0.15 0.2-0.2 0.33-0.04 0.09-0.11 0.17-0.19 0.26l-4 4.78-15.79 14.88v-0.26c0-0.4 0.04-0.81 0.13-1.25 0.13-0.48 0.24-0.85 0.33-1.11l8.98-25.36v-1.57zm-101.16 2.16c-0.13 0-0.24 0.04-0.32 0.13-0.05 0.09-0.11 0.22-0.2 0.39-0.17 0.18-0.42 0.46-0.72 0.86-0.26 0.39-0.42 0.63-0.46 0.72l-3.93 7.33-4.46 11.4-1.37 6.36v0.79c0 1.13 0.26 2.18 0.78 3.14 0.53 0.96 1.42 1.44 2.69 1.44 0.96 0 1.88-0.26 2.75-0.78 0.92-0.57 1.73-1.14 2.42-1.71 0.22-0.17 0.51-0.43 0.86-0.78 0.39-0.4 0.76-0.77 1.11-1.12 0.39-0.35 0.74-0.65 1.05-0.91l0.52-0.53 7.14-8.84-3.34 14.35-0.06 0.32v0.46c0 0.66 0.11 1.29 0.33 1.9 0.26 0.66 0.8 0.98 1.63 0.98 0.53 0 1.07-0.15 1.64-0.45 0.57-0.27 1.12-0.59 1.64-0.99 0.57-0.39 1.07-0.83 1.51-1.31 0.48-0.43 0.89-0.83 1.24-1.18 0.13-0.08 0.26-0.21 0.39-0.39 0.14-0.17 0.2-0.37 0.2-0.59 0-0.17-0.11-0.26-0.33-0.26-0.21 0-0.45 0.04-0.72 0.13l-4.19 1.64 6.81-27.98v-0.59-0.65c0-0.27-0.04-0.51-0.13-0.72-0.21 0.21-0.45 0.43-0.72 0.65-0.22 0.17-0.39 0.39-0.52 0.66-0.09 0.17-0.22 0.41-0.4 0.72-0.17 0.3-0.34 0.61-0.52 0.91-0.13 0.31-0.26 0.57-0.39 0.79s-0.2 0.35-0.2 0.39c-0.09 0.22-0.24 0.59-0.46 1.12-0.17 0.48-0.37 1-0.59 1.57-0.22 0.52-0.43 1.05-0.65 1.57-0.18 0.53-0.29 0.87-0.33 1.05l-0.13 0.26-15.73 15.6-1.31 0.72c-0.13 0-0.19-0.05-0.19-0.13v-0.33-0.39c0-0.18 0.02-0.44 0.06-0.79 0.05-0.35 0.09-0.68 0.13-0.98 0.09-0.35 0.16-0.64 0.2-0.86 0.04-0.26 0.07-0.41 0.07-0.45l7.46-24.05v-0.2c0-0.26-0.08-0.39-0.26-0.39zm76.82 0.52c-1.04 0-2.05 0.27-3.01 0.79-0.92 0.48-1.77 1.11-2.55 1.9-0.79 0.74-1.51 1.57-2.17 2.49-0.61 0.87-1.11 1.72-1.5 2.55l-0.46 0.92c-0.18 0.4-0.37 0.83-0.59 1.31-0.22 0.44-0.42 0.88-0.59 1.31-0.18 0.4-0.29 0.66-0.33 0.79-0.09 0.22-0.2 0.52-0.33 0.92-0.13 0.39-0.26 0.8-0.39 1.24-0.09 0.39-0.2 0.77-0.33 1.12-0.09 0.35-0.13 0.56-0.13 0.65l-0.78 5.77v0.78c0 1.27 0.1 2.56 0.32 3.87 0.26 1.31 0.7 2.51 1.31 3.6 0.61 1.05 1.42 1.92 2.43 2.62 1 0.66 2.27 0.99 3.8 0.99 1.44 0 2.88-0.31 4.32-0.92 2.05-0.88 3.76-2.01 5.11-3.41 1.4-1.44 2.67-3.1 3.8-4.98 1.14-1.96 2.08-4.04 2.82-6.22 0.74-2.23 1.11-4.5 1.11-6.82 0-1.31-0.17-2.55-0.52-3.73-0.35-1.22-0.9-2.27-1.64-3.15-0.7-0.87-1.59-1.57-2.68-2.09-1.05-0.53-2.3-0.79-3.74-0.79-0.61 0-1.2 0.02-1.77 0.07-0.52 0.04-1.05 0.24-1.57 0.59l-3.8 2.55-0.66 0.72h0.53 0.46c0.13 0 0.3-0.04 0.52-0.13 0.17-0.04 0.46-0.15 0.85-0.33 0.44-0.17 0.9-0.32 1.38-0.45 0.48-0.18 0.92-0.33 1.31-0.46 0.44-0.18 0.74-0.31 0.91-0.4h0.92c2.14 0 3.72 0.66 4.72 1.97s1.51 2.95 1.51 4.91v1.05c0 0.22-0.05 0.61-0.13 1.18-0.09 0.52-0.16 0.87-0.2 1.05-0.04 0.22-0.13 0.5-0.26 0.85-0.09 0.35-0.2 0.72-0.33 1.12-0.09 0.34-0.17 0.67-0.26 0.98-0.09 0.3-0.16 0.48-0.2 0.52l-2.55 5.18c-0.05 0.08-0.18 0.28-0.4 0.59-0.17 0.26-0.39 0.57-0.65 0.91l-0.79 1.05-0.59 0.79c-0.87 1.05-2.01 1.99-3.4 2.82-1.4 0.78-2.8 1.17-4.2 1.17-0.96 0-1.72-0.28-2.29-0.85-0.57-0.61-1.01-1.33-1.31-2.16-0.26-0.83-0.44-1.7-0.53-2.62-0.08-0.92-0.13-1.7-0.13-2.36v-1.11l0.72-5.18 1.84-5.96 2.29-4.39c0.61-1.14 1.51-2.12 2.69-2.95 1.18-0.87 2.4-1.42 3.67-1.64 0.09-0.08 0.13-0.15 0.13-0.19 0-0.13-0.11-0.22-0.33-0.26-0.17-0.09-0.3-0.14-0.39-0.14h-0.99zm185.13 0.46c-0.83 0-1.63 0.13-2.42 0.4-0.79 0.26-1.51 0.63-2.16 1.11-0.26 0.17-0.68 0.46-1.25 0.85-0.56 0.39-0.89 0.63-0.98 0.72l-3.87 3.93-4.19 5.51-3.34 6.22-2.03 6.23-0.59 4.12v0.26c0 0.7 0.06 1.45 0.2 2.23 0.13 0.75 0.37 1.44 0.72 2.1 0.35 0.65 0.78 1.18 1.31 1.57 0.56 0.44 1.29 0.66 2.16 0.66s1.75-0.2 2.62-0.59c0.31-0.13 0.72-0.31 1.25-0.53 0.56-0.21 1.09-0.45 1.57-0.72 0.52-0.21 0.98-0.41 1.37-0.59 0.4-0.17 0.62-0.28 0.66-0.32l6.29-4.13 8.52-7.73c0.04-0.05 0.17-0.2 0.39-0.46 0.22-0.31 0.37-0.55 0.46-0.72 0-0.05 0.02-0.11 0.06-0.2 0.09-0.13 0.14-0.22 0.14-0.26h-0.14l-1.57 0.72-15.86 9.89-5.17 1.97h-0.26c-0.26 0-0.46-0.11-0.59-0.33s-0.22-0.46-0.26-0.72c-0.05-0.31-0.07-0.61-0.07-0.92v-0.72c0-1.26 0.18-2.58 0.52-3.93 0.35-1.35 0.75-2.6 1.18-3.73 0.14-0.31 0.31-0.72 0.53-1.25 0.22-0.52 0.46-1.05 0.72-1.57 0.26-0.57 0.48-1.07 0.65-1.51l0.4-0.78 4.52-6.88 4.58-5.05c0.53-0.57 1.18-1.05 1.97-1.44 0.79-0.44 1.55-0.65 2.29-0.65 1.01 0 1.75 0.39 2.23 1.17 0.53 0.75 0.83 1.58 0.92 2.49l0.19 4.07v0.19c0.05 0.09 0.11 0.13 0.2 0.13 0.22 0 0.39-0.22 0.52-0.65 0.18-0.44 0.31-0.92 0.4-1.44 0.13-0.57 0.22-1.1 0.26-1.58 0.09-0.52 0.13-0.87 0.13-1.04 0-0.83-0.11-1.6-0.33-2.3-0.17-0.74-0.48-1.4-0.91-1.96-0.44-0.57-0.99-1.01-1.64-1.31-0.61-0.35-1.38-0.53-2.3-0.53zm-45.84 1.51c-0.66 0-1.29 0.07-1.9 0.2-0.61 0.08-1.23 0.24-1.84 0.46-0.13 0.04-0.3 0.13-0.52 0.26-0.22 0.08-0.46 0.19-0.72 0.33-0.26 0.08-0.5 0.17-0.72 0.26-0.18 0.08-0.29 0.15-0.33 0.19l-3.8 2.56-4.72 4.45-5.3 7.01-2.36 4.72c-0.27 0.48-0.44 1.07-0.53 1.77-0.13 0.7-0.19 1.33-0.19 1.9 0 1.66 0.52 3.06 1.57 4.19 1.05 1.14 2.4 1.71 4.06 1.71 0.74 0 1.46-0.07 2.16-0.2 0.74-0.17 1.44-0.46 2.1-0.85 0.13-0.09 0.3-0.2 0.52-0.33 0.22-0.17 0.44-0.33 0.66-0.46 0.26-0.17 0.48-0.33 0.65-0.46 0.18-0.13 0.29-0.21 0.33-0.26l5.44-5.7 5.24-7.86-0.98 9.7v0.32c0 0.18-0.02 0.4-0.07 0.66v0.85 0.66 3.34c0 1.05 0.29 2.12 0.85 3.21h0.07c0.04 0 0.09-0.05 0.13-0.13 0.22-0.27 0.42-0.53 0.59-0.79 0.22-0.26 0.37-0.57 0.46-0.92l0.33-1.31c0.13-0.56 0.26-1.11 0.39-1.64 0.13-0.52 0.24-0.98 0.33-1.37l0.13-0.59 1.7-16.71v-1.24-1.51c0-0.52-0.15-1.03-0.46-1.51h-0.06c-0.09 0-0.24 0.11-0.46 0.33-0.22 0.18-0.35 0.31-0.39 0.39l-1.25 2.62-8.38 10.68-5.77 5.64c-0.48 0.48-1.09 0.9-1.84 1.25-0.74 0.34-1.46 0.52-2.16 0.52-1.09 0-1.74-0.5-1.96-1.51 0-0.09-0.03-0.22-0.07-0.39v-0.46-1.05c0.04-0.26 0.18-0.63 0.39-1.11 0.05-0.13 0.14-0.33 0.27-0.59l0.39-0.92c0.13-0.3 0.24-0.57 0.33-0.79 0.13-0.26 0.22-0.41 0.26-0.45l4.58-7.01 5.18-5.77c0.05-0.04 0.18-0.15 0.4-0.33l0.78-0.65c0.31-0.22 0.59-0.44 0.85-0.66 0.31-0.22 0.53-0.39 0.66-0.52 1.31-0.96 2.62-1.66 3.93-2.1 1.35-0.44 2.84-0.7 4.45-0.78l0.14-0.14-0.07-0.13c-0.04-0.09-0.11-0.15-0.2-0.19-0.48-0.35-1-0.57-1.57-0.66s-1.14-0.13-1.7-0.13zm-253.16 2.36l13.04 3.08c0.08 0 0.28 0.06 0.59 0.19 0.34 0.13 0.72 0.27 1.11 0.4 0.44 0.13 0.85 0.28 1.24 0.46 0.4 0.13 0.7 0.24 0.92 0.32 0.09 0.05 0.33 0.2 0.72 0.46 0.39 0.22 0.7 0.37 0.92 0.46 0.35 0.22 0.68 0.48 0.98 0.79 0.35 0.3 0.53 0.67 0.53 1.11 0 0.74-0.31 1.38-0.92 1.9l-0.53 0.53c-0.17 0.21-0.37 0.43-0.59 0.65l-0.52 0.53-0.26 0.19-29.49 17.17 5.51-25.43 0.06-0.32c0.05-0.05 0.16-0.11 0.33-0.2l6.36-2.29zm252.96 11.4c0.05 0 0.07 0.02 0.07 0.07h-0.07v-0.07zm-207.98 1.44c0.04 0 0.07 0.02 0.07 0.07 0 0.04-0.03 0.06-0.07 0.06v-0.13zm-203.62 23.18c0.02-0.01 0.03 0 0.06 0.03s0.24 0.31 0.48 0.62 0.62 0.75 0.85 0.99 0.54 0.52 0.67 0.61c0.14 0.1 0.35 0.23 0.47 0.29 0.11 0.06 0.42 0.17 0.68 0.25 0.27 0.08 0.65 0.16 0.85 0.19s0.45 0.04 0.56 0.02c0.11-0.01 0.45-0.08 0.76-0.15s0.83-0.18 1.16-0.24c0.33-0.07 0.61-0.12 0.62-0.11s-0.02 0.04-0.08 0.07c-0.05 0.03-0.4 0.35-0.78 0.72-0.38 0.38-0.78 0.73-0.88 0.79s-0.44 0.2-0.75 0.32-0.66 0.25-0.79 0.3c-0.14 0.05-0.33 0.08-0.52 0.08-0.16 0-0.41-0.02-0.56-0.05-0.15-0.02-0.38-0.09-0.52-0.15s-0.36-0.17-0.49-0.25c-0.12-0.08-0.35-0.27-0.51-0.43-0.16-0.15-0.37-0.39-0.47-0.54-0.09-0.15-0.21-0.37-0.26-0.48-0.05-0.12-0.18-0.45-0.29-0.75-0.12-0.3-0.24-0.65-0.29-0.77-0.05-0.18-0.07-0.35-0.07-0.69 0-0.26 0.02-0.51 0.05-0.58 0.02-0.05 0.04-0.08 0.05-0.09zm61.21 1.62c0.02 0.02 0.05 0.11 0.07 0.21 0.01 0.1-0.01 0.33-0.04 0.53-0.04 0.19-0.22 0.83-0.42 1.41-0.2 0.61-0.41 1.14-0.48 1.25s-0.2 0.27-0.3 0.36c-0.1 0.1-0.32 0.28-0.5 0.41-0.17 0.13-0.42 0.28-0.54 0.34-0.13 0.06-0.39 0.12-0.6 0.15-0.2 0.03-0.51 0.04-0.67 0.02-0.16-0.01-0.4-0.05-0.54-0.08-0.14-0.04-0.44-0.16-0.66-0.27-0.23-0.12-0.55-0.31-0.7-0.43-0.16-0.12-0.47-0.38-0.69-0.56-0.23-0.19-0.53-0.47-0.68-0.63s-0.35-0.42-0.44-0.58-0.2-0.37-0.24-0.46l-0.07-0.18 0.09 0.04c0.06 0.02 0.39 0.15 0.74 0.3 0.36 0.15 0.83 0.33 1.05 0.4s0.6 0.17 0.84 0.22c0.29 0.06 0.57 0.09 0.87 0.09 0.34 0 0.51-0.02 0.81-0.11 0.21-0.06 0.53-0.19 0.73-0.28l0.35-0.17 0.99-1c0.54-0.55 1-0.99 1.03-0.98zm-23.69 2.15l0.54 0.39c0.29 0.22 0.69 0.49 0.89 0.61 0.19 0.13 0.52 0.31 0.73 0.41 0.2 0.09 0.49 0.21 0.63 0.26 0.14 0.04 0.37 0.1 0.52 0.13 0.15 0.02 0.39 0.04 0.54 0.04s0.39-0.02 0.54-0.04c0.14-0.03 0.38-0.09 0.52-0.13 0.14-0.05 0.41-0.16 0.6-0.25s0.53-0.28 0.75-0.41c0.22-0.14 0.62-0.41 0.88-0.6 0.27-0.2 0.49-0.35 0.5-0.34 0 0.01-0.11 0.37-0.25 0.8s-0.31 0.88-0.38 1.01c-0.07 0.12-0.25 0.39-0.41 0.6-0.15 0.21-0.42 0.51-0.59 0.67-0.19 0.18-0.41 0.33-0.6 0.42-0.16 0.08-0.48 0.2-0.7 0.27-0.26 0.08-0.59 0.15-0.87 0.18-0.37 0.03-0.5 0.03-0.77-0.03-0.18-0.03-0.46-0.13-0.63-0.21-0.16-0.09-0.4-0.25-0.53-0.37-0.14-0.11-0.39-0.38-0.58-0.59s-0.42-0.51-0.51-0.67-0.3-0.62-0.46-1.02c-0.17-0.4-0.31-0.82-0.33-0.93l-0.03-0.2zm-12.05 0.07c0.01 0.01-0.03 0.17-0.1 0.36-0.06 0.19-0.2 0.56-0.31 0.81-0.11 0.26-0.26 0.56-0.34 0.67s-0.36 0.41-0.62 0.66c-0.26 0.26-0.56 0.51-0.66 0.57-0.11 0.06-0.35 0.18-0.55 0.26-0.19 0.08-0.49 0.17-0.67 0.21s-0.42 0.07-0.55 0.07c-0.12 0-0.36-0.04-0.54-0.08-0.17-0.05-0.45-0.15-0.62-0.24-0.17-0.08-0.43-0.24-0.58-0.36-0.15-0.11-0.47-0.4-0.72-0.65-0.31-0.33-0.47-0.54-0.57-0.73-0.08-0.17-0.2-0.32-0.31-0.42-0.12-0.09-0.23-0.25-0.31-0.41-0.07-0.15-0.14-0.34-0.16-0.44l-0.02-0.18 0.26 0.18c0.15 0.1 0.46 0.29 0.68 0.42 0.23 0.14 0.6 0.33 0.82 0.44 0.22 0.12 0.52 0.26 0.67 0.32s0.42 0.14 0.6 0.19 0.48 0.09 0.66 0.11c0.19 0.01 0.48 0 0.65-0.03 0.17-0.02 0.42-0.08 0.56-0.13s0.42-0.16 0.61-0.25 0.53-0.28 0.75-0.41c0.22-0.14 0.61-0.41 0.88-0.6 0.26-0.2 0.48-0.35 0.49-0.34zm-16.94 8.84c0.01 0 0.02 0.01 0.03 0.02 0.03 0.03 0.25 0.31 0.49 0.62s0.62 0.76 0.85 1 0.53 0.52 0.67 0.62 0.38 0.25 0.54 0.33c0.15 0.08 0.43 0.18 0.6 0.23 0.22 0.05 0.52 0.09 0.95 0.11l0.62 0.02 0.77-0.17c0.43-0.09 0.93-0.2 1.13-0.24 0.19-0.03 0.39-0.08 0.43-0.09l0.08-0.02-0.08 0.14c-0.04 0.07-0.29 0.36-0.55 0.63-0.32 0.33-0.61 0.58-0.88 0.76-0.27 0.19-0.56 0.33-0.9 0.46-0.27 0.11-0.6 0.23-0.72 0.27-0.14 0.05-0.34 0.08-0.5 0.08-0.15 0-0.4-0.02-0.55-0.04-0.15-0.03-0.39-0.09-0.54-0.15s-0.38-0.18-0.5-0.26c-0.13-0.08-0.36-0.27-0.52-0.42-0.15-0.15-0.36-0.4-0.46-0.55-0.1-0.14-0.22-0.36-0.27-0.48-0.04-0.11-0.18-0.45-0.29-0.75-0.11-0.29-0.23-0.63-0.27-0.75-0.04-0.11-0.09-0.33-0.11-0.5-0.02-0.16-0.04-0.43-0.04-0.6 0-0.2 0-0.27 0.02-0.27zm41.34 1.16c0 0.04-0.01 0.2-0.04 0.37-0.02 0.16-0.14 0.59-0.26 0.95-0.11 0.35-0.26 0.77-0.33 0.92-0.11 0.22-0.25 0.39-0.82 0.96-0.38 0.39-0.75 0.73-0.83 0.77s-0.36 0.13-0.61 0.19c-0.39 0.11-0.51 0.12-0.77 0.1-0.16-0.01-0.46-0.07-0.66-0.13s-0.53-0.19-0.74-0.3c-0.33-0.17-0.45-0.26-0.94-0.76-0.31-0.31-0.67-0.71-0.79-0.88-0.12-0.18-0.29-0.47-0.38-0.65s-0.2-0.45-0.25-0.61c-0.04-0.16-0.08-0.29-0.07-0.3 0 0 0.19 0.09 0.41 0.22 0.21 0.13 0.73 0.41 1.14 0.62s0.88 0.44 1.04 0.5 0.44 0.14 0.61 0.17c0.24 0.04 0.39 0.04 0.64 0.01 0.19-0.03 0.43-0.06 0.55-0.09 0.12-0.02 0.35-0.1 0.52-0.18s0.48-0.26 0.69-0.38c0.2-0.13 0.46-0.3 0.56-0.39 0.1-0.08 0.44-0.37 0.75-0.66 0.38-0.35 0.57-0.49 0.58-0.45zm-17.23 1.17c0.01 0.01-0.06 0.16-0.15 0.34s-0.26 0.58-0.38 0.89c-0.14 0.34-0.29 0.65-0.4 0.79-0.09 0.13-0.38 0.43-0.63 0.67-0.25 0.25-0.54 0.5-0.64 0.56s-0.34 0.17-0.54 0.25c-0.19 0.08-0.5 0.17-0.68 0.21-0.17 0.04-0.42 0.07-0.54 0.07-0.13 0-0.37-0.04-0.54-0.08-0.17-0.05-0.45-0.15-0.62-0.24-0.17-0.08-0.44-0.24-0.59-0.35-0.15-0.12-0.47-0.41-0.71-0.66-0.32-0.33-0.47-0.53-0.56-0.72-0.07-0.15-0.24-0.49-0.36-0.77-0.13-0.27-0.25-0.58-0.26-0.68l-0.03-0.18 0.27 0.19c0.14 0.1 0.47 0.3 0.71 0.44 0.25 0.14 0.7 0.38 1 0.53 0.31 0.14 0.67 0.3 0.81 0.35 0.14 0.04 0.37 0.1 0.52 0.12 0.15 0.03 0.39 0.05 0.54 0.05s0.39-0.02 0.54-0.05c0.14-0.02 0.38-0.08 0.52-0.13 0.14-0.04 0.41-0.15 0.6-0.24 0.19-0.1 0.53-0.28 0.75-0.42s0.62-0.41 0.88-0.6 0.49-0.34 0.49-0.34zm0.21 10.78l0.39 0.28c0.22 0.16 0.6 0.43 0.85 0.6 0.25 0.16 0.58 0.36 0.73 0.43 0.15 0.08 0.4 0.19 0.56 0.25s0.42 0.14 0.57 0.18c0.18 0.05 0.42 0.07 0.79 0.07s0.6-0.02 0.79-0.07c0.14-0.04 0.43-0.15 0.64-0.24 0.2-0.09 0.52-0.25 0.71-0.35 0.19-0.11 0.59-0.38 0.9-0.6s0.59-0.43 0.64-0.46c0.04-0.03 0.01 0.08-0.11 0.32-0.11 0.2-0.26 0.56-0.34 0.8-0.09 0.24-0.21 0.54-0.28 0.66s-0.25 0.4-0.4 0.61c-0.16 0.21-0.41 0.49-0.56 0.64-0.16 0.14-0.36 0.3-0.46 0.36s-0.34 0.17-0.53 0.25c-0.2 0.08-0.51 0.18-0.71 0.21-0.23 0.05-0.45 0.07-0.64 0.06-0.17-0.02-0.42-0.07-0.57-0.12s-0.4-0.17-0.56-0.26c-0.21-0.12-0.45-0.32-0.8-0.68-0.31-0.31-0.61-0.68-0.78-0.92-0.19-0.28-0.36-0.6-0.52-1.02-0.14-0.33-0.26-0.69-0.28-0.8l-0.03-0.2zm-7.05 0.07c0.01 0-0.05 0.14-0.14 0.31-0.08 0.17-0.25 0.56-0.37 0.87-0.13 0.31-0.3 0.66-0.38 0.78s-0.38 0.44-0.66 0.72c-0.44 0.43-0.56 0.52-0.86 0.66-0.19 0.1-0.47 0.21-0.62 0.26-0.14 0.05-0.41 0.11-0.59 0.14-0.25 0.03-0.41 0.03-0.66 0-0.18-0.03-0.47-0.11-0.65-0.18-0.19-0.07-0.48-0.22-0.65-0.33-0.22-0.15-0.47-0.37-0.81-0.74-0.33-0.36-0.52-0.61-0.6-0.78-0.07-0.14-0.22-0.48-0.35-0.76-0.13-0.27-0.25-0.58-0.26-0.67l-0.03-0.18 0.39 0.26c0.22 0.14 0.65 0.4 0.96 0.56 0.31 0.17 0.7 0.37 0.87 0.45s0.43 0.18 0.57 0.22c0.14 0.05 0.39 0.11 0.56 0.14 0.18 0.03 0.48 0.04 0.71 0.02 0.21-0.01 0.5-0.05 0.64-0.09 0.13-0.03 0.41-0.14 0.61-0.23 0.21-0.08 0.53-0.25 0.73-0.36 0.19-0.11 0.63-0.4 0.97-0.64 0.34-0.25 0.62-0.44 0.62-0.43z"
     fill="#4e5d75" /></svg>